/* XPM */
static char * close_inactive_xpm[] = {
"43 21 3 1",
" 	c None",
".	c #3B4345",
"+	c #C3D6DC",
"...........................................",
".+++++++++++++++++++++++++++++++++++++++++.",
".+++++++++++++++++++++++++++++++++++++++++.",
".+++++++++++++++++++++++++++++++++++++++++.",
".++++++++++++++++...+++...++++++++++++++++.",
".+++++++++++++++++...+...+++++++++++++++++.",
".++++++++++++++++++.....++++++++++++++++++.",
".+++++++++++++++++++...+++++++++++++++++++.",
".+++++++++++++++++++...+++++++++++++++++++.",
".++++++++++++++++++.....++++++++++++++++++.",
".+++++++++++++++++...+...+++++++++++++++++.",
".++++++++++++++++...+++...++++++++++++++++.",
".+++++++++++++++++++++++++++++++++++++++++.",
".+++++++++++++++++++++++++++++++++++++++++.",
".+++++++++++++++++++++++++++++++++++++++++.",
".+++++++++++++++++++++++++++++++++++++++++.",
"...........................................",
"+++++++++++++++++++++++++++++++++++++++++++",
"+++++++++++++++++++++++++++++++++++++++++++",
"+++++++++++++++++++++++++++++++++++++++++++",
"+++++++++++++++++++++++++++++++++++++++++++"};
