/* XPM */
static char * close_prelight_xpm[] = {
"43 21 5 1",
" 	c None",
".	c #293031",
"+	c #E0655D",
"@	c #000000",
"#	c #63CBEF",
"...........................................",
".+++++++++++++++++++++++++++++++++++++++++.",
".+++++++++++++++++++++++++++++++++++++++++.",
".+++++++++++++++++++++++++++++++++++++++++.",
".++++++++++++++++@@@+++@@@++++++++++++++++.",
".+++++++++++++++++@@@+@@@+++++++++++++++++.",
".++++++++++++++++++@@@@@++++++++++++++++++.",
".+++++++++++++++++++@@@+++++++++++++++++++.",
".+++++++++++++++++++@@@+++++++++++++++++++.",
".++++++++++++++++++@@@@@++++++++++++++++++.",
".+++++++++++++++++@@@+@@@+++++++++++++++++.",
".++++++++++++++++@@@+++@@@++++++++++++++++.",
".+++++++++++++++++++++++++++++++++++++++++.",
".+++++++++++++++++++++++++++++++++++++++++.",
".+++++++++++++++++++++++++++++++++++++++++.",
".+++++++++++++++++++++++++++++++++++++++++.",
"...........................................",
"###########################################",
"###########################################",
"###########################################",
"###########################################"};
