/* XPM */
static char * maximize_inactive_xpm[] = {
"24 21 3 1",
" 	c None",
".	c #3B4345",
"+	c #C3D6DC",
"........................",
".+++++++++++++++++++++++",
".+++++++++++++++++++++++",
".+++++++++++++++++++++++",
".+++++++++++++++++++++++",
".++++++.........++++++++",
".++++++.+++++++.++++++++",
".++++++.+++++++.++++++++",
".++++++.+++++++.++++++++",
".++++++.+++++++.++++++++",
".++++++.+++++++.++++++++",
".++++++.+++++++.++++++++",
".++++++.........++++++++",
".+++++++++++++++++++++++",
".+++++++++++++++++++++++",
".+++++++++++++++++++++++",
"........................",
"++++++++++++++++++++++++",
"++++++++++++++++++++++++",
"++++++++++++++++++++++++",
"++++++++++++++++++++++++"};
