/* XPM */
static char * right_active_xpm[] = {
"4 4 3 1",
" 	c None",
".	c #63CBEF",
"+	c #293031",
"...+",
"...+",
"...+",
"...+"};
