/* XPM */
static char * top_left_active_xpm[] = {
"4 21 3 1",
" 	c None",
".	c #293031",
"+	c #63CBEF",
"....",
".+++",
".+++",
".+++",
".+++",
".+++",
".+++",
".+++",
".+++",
".+++",
".+++",
".+++",
".+++",
".+++",
".+++",
".+++",
".+++",
".+++",
".+++",
".+++",
".+++"};
