/* XPM */
static char * close_inactive_xpm[] = {
"43 21 5 1",
" 	c None",
".	c #000000",
"+	c #553333",
"@	c #505050",
"#	c #1F1F1F",
".++++++++++++++++++++++++++++++++++++++++++",
".++++++++++++++++++++++++++++++++++++++++++",
".++++++++++++++++++++++++++++++++++++++++++",
".++++++++++++++++++++++++++++++++++++++++++",
".++++++++++++++++++++++++++++++++++++++++++",
".+++++++++++++++++@@+++@@++++++++++++++++++",
".+++++++++++++++++@@@+@@@++++++++++++++++++",
".++++++++++++++++++@@@@@+++++++++++++++++++",
".+++++++++++++++++++@@@++++++++++++++++++++",
".++++++++++++++++++@@@@@+++++++++++++++++++",
".+++++++++++++++++@@@+@@@++++++++++++++++++",
".+++++++++++++++++@@+++@@++++++++++++++++++",
".++++++++++++++++++++++++++++++++++++++++++",
".++++++++++++++++++++++++++++++++++++++++++",
".++++++++++++++++++++++++++++++++++++++++++",
".++++++++++++++++++++++++++++++++++++++++++",
"...........................................",
"###########################################",
"###########################################",
"###########################################",
"###########################################"};
