/* XPM */
static char * close_active_xpm[] = {
"43 21 11 1",
" 	c None",
".	c #000000",
"+	c #D64937",
"@	c #FFFFFF",
"#	c #C8B0B0",
"$	c #C5A5A5",
"%	c #C9B2B2",
"&	c #CBBBBB",
"*	c #D0CACA",
"=	c #D1CECE",
"-	c #121212",
".++++++++++++++++++++++++++++++++++++++++++",
".++++++++++++++++++++++++++++++++++++++++++",
".++++++++++++++++++++++++++++++++++++++++++",
".++++++++++++++++++++++++++++++++++++++++++",
".++++++++++++++++++++++++++++++++++++++++++",
".+++++++++++++++++@#+++$@++++++++++++++++++",
".+++++++++++++++++%@#+$@&++++++++++++++++++",
".++++++++++++++++++%@*@&+++++++++++++++++++",
".+++++++++++++++++++*@=++++++++++++++++++++",
".++++++++++++++++++$@=@#+++++++++++++++++++",
".+++++++++++++++++$@&+%@#++++++++++++++++++",
".+++++++++++++++++@&+++%@++++++++++++++++++",
".++++++++++++++++++++++++++++++++++++++++++",
".++++++++++++++++++++++++++++++++++++++++++",
".++++++++++++++++++++++++++++++++++++++++++",
".++++++++++++++++++++++++++++++++++++++++++",
"...........................................",
"-------------------------------------------",
"-------------------------------------------",
"-------------------------------------------",
"-------------------------------------------"};
