/* XPM */
static char * close_pressed_xpm[] = {
"43 21 12 1",
" 	c None",
".	c #000000",
"+	c #F58070",
"@	c #FFFFFF",
"#	c #FFD6D6",
"$	c #FFC9C9",
"%	c #FFD9D9",
"&	c #FFE4E4",
"*	c #FFF5F5",
"=	c #FFF6F6",
"-	c #FFFAFA",
";	c #121212",
".++++++++++++++++++++++++++++++++++++++++++",
".++++++++++++++++++++++++++++++++++++++++++",
".++++++++++++++++++++++++++++++++++++++++++",
".++++++++++++++++++++++++++++++++++++++++++",
".++++++++++++++++++++++++++++++++++++++++++",
".+++++++++++++++++@#+++$@++++++++++++++++++",
".+++++++++++++++++%@#+$@&++++++++++++++++++",
".++++++++++++++++++%@*@&+++++++++++++++++++",
".+++++++++++++++++++=@-++++++++++++++++++++",
".++++++++++++++++++$@-@#+++++++++++++++++++",
".+++++++++++++++++$@&+%@#++++++++++++++++++",
".+++++++++++++++++@&+++%@++++++++++++++++++",
".++++++++++++++++++++++++++++++++++++++++++",
".++++++++++++++++++++++++++++++++++++++++++",
".++++++++++++++++++++++++++++++++++++++++++",
".++++++++++++++++++++++++++++++++++++++++++",
"...........................................",
";;;;;;;;;;;;;;;;;;;;;;;;;;;;;;;;;;;;;;;;;;;",
";;;;;;;;;;;;;;;;;;;;;;;;;;;;;;;;;;;;;;;;;;;",
";;;;;;;;;;;;;;;;;;;;;;;;;;;;;;;;;;;;;;;;;;;",
";;;;;;;;;;;;;;;;;;;;;;;;;;;;;;;;;;;;;;;;;;;"};
