/* XPM */
static char * maximize_toggled_active_xpm[] = {
"24 21 4 1",
" 	c None",
".	c #000000",
"+	c #121212",
"@	c #FFFFFF",
".+++++++++++++++++++++++",
".+++++++++++++++++++++++",
".+++++++++++++++++++++++",
".+++++++@@@@@@@@@@++++++",
".++++++++++++++++@++++++",
".++++++@@@@@@@@@+@++++++",
".++++++@+++++++@+@++++++",
".++++++@+++++++@+@++++++",
".++++++@+++++++@+@++++++",
".++++++@+++++++@+@++++++",
".++++++@+++++++@+@++++++",
".++++++@+++++++@+@++++++",
".++++++@@@@@@@@@++++++++",
".+++++++++++++++++++++++",
".+++++++++++++++++++++++",
".+++++++++++++++++++++++",
"........................",
"++++++++++++++++++++++++",
"++++++++++++++++++++++++",
"++++++++++++++++++++++++",
"++++++++++++++++++++++++"};
