/* XPM */
static char * maximize_inactive_xpm[] = {
"24 21 4 1",
" 	c None",
".	c #000000",
"+	c #1F1F1F",
"@	c #5C5C5C",
".+++++++++++++++++++++++",
".+++++++++++++++++++++++",
".+++++++++++++++++++++++",
".+++++++++++++++++++++++",
".+++++++++++++++++++++++",
".++++++@@@@@@@@@++++++++",
".++++++@+++++++@++++++++",
".++++++@+++++++@++++++++",
".++++++@+++++++@++++++++",
".++++++@+++++++@++++++++",
".++++++@+++++++@++++++++",
".++++++@+++++++@++++++++",
".++++++@@@@@@@@@++++++++",
".+++++++++++++++++++++++",
".+++++++++++++++++++++++",
".+++++++++++++++++++++++",
"........................",
"++++++++++++++++++++++++",
"++++++++++++++++++++++++",
"++++++++++++++++++++++++",
"++++++++++++++++++++++++"};
