/* XPM */
static char * title_1_active_xpm[] = {
"2 21 3 1",
" 	c None",
".	c #121212",
"+	c #D64937",
"..",
"++",
"..",
"..",
"..",
"..",
"..",
"..",
"..",
"..",
"..",
"..",
"..",
"..",
"..",
"..",
"..",
"..",
"..",
"..",
".."};
